<svg width="18" height="18" viewBox="0 0 18 18" fill="none" xmlns="http://www.w3.org/2000/svg">
<path d="M17.0683 1.76032L10.1933 16.7603C10.1357 16.886 10.0382 16.989 9.91586 17.0533C9.79355 17.1176 9.65337 17.1396 9.51725 17.1158C9.38112 17.092 9.25673 17.0237 9.16353 16.9217C9.07033 16.8196 9.01357 16.6896 9.00213 16.5519L8.42088 9.57894L1.44794 8.99769C1.31022 8.98625 1.18018 8.92949 1.07815 8.83629C0.976119 8.74308 0.907856 8.61869 0.884036 8.48257C0.860215 8.34645 0.88218 8.20627 0.946496 8.08395C1.01081 7.96164 1.11385 7.86409 1.2395 7.80657L16.2395 0.931565C16.3555 0.878422 16.4849 0.862033 16.6104 0.884598C16.736 0.907163 16.8516 0.967602 16.9418 1.0578C17.032 1.148 17.0925 1.26363 17.115 1.38918C17.1376 1.51472 17.1212 1.64417 17.0681 1.76013L17.0683 1.76032Z" fill="#080809"/>
</svg>
